{
  "source": "C:\\Users\\Peter\\Desktop\\stuff\\MIUN\\quantitative_research\\video_compression\\videos\\BVI-HD\\BVI-HD_CDVL_videos\\ORIG\\Diver_1920x1080_30fps.mp4",
  "output": "C:\\Users\\Peter\\Desktop\\stuff\\MIUN\\quantitative_research\\video_compression\\compressed_videos\\BVI-HD\\h264\\8\\Diver_1920x1080_30fps_h264.mp4",
  "codec": "h264",
  "ok": "Input #0, mov,mp4,m4a,3gp,3g2,mj2, from 'C:\\Users\\Peter\\Desktop\\stuff\\MIUN\\quantitative_research\\video_compression\\videos\\BVI-HD\\BVI-HD_CDVL_videos\\ORIG\\Diver_1920x1080_30fps.mp4':\n  Metadata:\n    major_brand     : isom\n    minor_version   : 512\n    compatible_brands: isomiso2avc1mp41\n    encoder         : Lavf54.28.101\n  Duration: 00:00:05.00, start: 0.000000, bitrate: 196798 kb/s\n  Stream #0:0[0x1](und): Video: h264 (High 4:4:4 Predictive) (avc1 / 0x31637661), yuv420p(progressive), 1920x1080, 196794 kb/s, 30 fps, 30 tbr, 30 tbn (default)\n    Metadata:\n      handler_name    : VideoHandler\n      vendor_id       : [0][0][0][0]\n[out#0/mp4 @ 000001a4761f9cc0] Codec AVOption b:a (set bitrate (in bits/s)) has not been used for any stream. The most likely reason is either wrong type (e.g. a video option with no video streams) or that it is a private option of some decoder which was not actually used for any stream.\nStream mapping:\n  Stream #0:0 -> #0:0 (h264 (native) -> h264 (libx264))\nPress [q] to stop, [?] for help\n[libx264 @ 000001a4761fdf00] using cpu capabilities: MMX2 SSE2Fast SSSE3 SSE4.2 AVX FMA3 BMI2 AVX2\n[libx264 @ 000001a4761fdf00] profile High, level 5.0, 4:2:0, 8-bit\n[libx264 @ 000001a4761fdf00] 264 - core 165 r3222 b35605a - H.264/MPEG-4 AVC codec - Copyleft 2003-2025 - http://www.videolan.org/x264.html - options: cabac=1 ref=5 deblock=1:0:0 analyse=0x3:0x113 me=hex subme=8 psy=1 psy_rd=1.00:0.00 mixed_ref=1 me_range=16 chroma_me=1 trellis=2 8x8dct=1 cqm=0 deadzone=21,11 fast_pskip=1 chroma_qp_offset=-2 threads=18 lookahead_threads=3 sliced_threads=0 nr=0 decimate=1 interlaced=0 bluray_compat=0 constrained_intra=0 bframes=3 b_pyramid=2 b_adapt=1 b_bias=0 direct=3 weightb=1 open_gop=0 weightp=2 keyint=250 keyint_min=25 scenecut=40 intra_refresh=0 rc_lookahead=50 rc=cbr mbtree=1 bitrate=8000 ratetol=1.0 qcomp=0.60 qpmin=0 qpmax=69 qpstep=4 vbv_maxrate=8000 vbv_bufsize=8000 nal_hrd=none filler=0 ip_ratio=1.40 aq=1:1.00\nOutput #0, mp4, to 'C:\\Users\\Peter\\Desktop\\stuff\\MIUN\\quantitative_research\\video_compression\\compressed_videos\\BVI-HD\\h264\\8\\Diver_1920x1080_30fps_h264.mp4':\n  Metadata:\n    major_brand     : isom\n    minor_version   : 512\n    compatible_brands: isomiso2avc1mp41\n    encoder         : Lavf62.3.100\n  Stream #0:0(und): Video: h264 (avc1 / 0x31637661), yuv420p(tv, progressive), 1920x1080, q=2-31, 8000 kb/s, 30 fps, 15360 tbn (default)\n    Metadata:\n      encoder         : Lavc62.11.100 libx264\n      handler_name    : VideoHandler\n      vendor_id       : [0][0][0][0]\n    Side data:\n      cpb: bitrate max/min/avg: 8000000/0/8000000 buffer size: 8000000 vbv_delay: N/A\nframe=    0 fps=0.0 q=0.0 size=       0KiB time=N/A bitrate=N/A speed=N/A elapsed=0:00:00.53    \nframe=    0 fps=0.0 q=0.0 size=       0KiB time=N/A bitrate=N/A speed=N/A elapsed=0:00:01.15    \nframe=    0 fps=0.0 q=0.0 size=       0KiB time=N/A bitrate=N/A speed=N/A elapsed=0:00:01.70    \nframe=    1 fps=0.4 q=27.0 size=       0KiB time=-00:00:00.03 bitrate=N/A speed=N/A elapsed=0:00:02.22    \nframe=   13 fps=4.6 q=23.0 size=     256KiB time=00:00:00.36 bitrate=5720.5kbits/s speed=0.131x elapsed=0:00:02.80    \nframe=   25 fps=7.5 q=23.0 size=     256KiB time=00:00:00.76 bitrate=2735.9kbits/s speed=0.231x elapsed=0:00:03.31    \nframe=   29 fps=7.6 q=23.0 size=     512KiB time=00:00:00.90 bitrate=4660.8kbits/s speed=0.235x elapsed=0:00:03.82    \nframe=   45 fps= 10 q=27.0 size=    1280KiB time=00:00:01.36 bitrate=7672.8kbits/s speed=0.311x elapsed=0:00:04.39    \nframe=   49 fps=9.8 q=27.0 size=    1280KiB time=00:00:01.56 bitrate=6693.3kbits/s speed=0.315x elapsed=0:00:04.97    \nframe=   69 fps= 13 q=25.0 size=    2048KiB time=00:00:02.10 bitrate=7989.3kbits/s speed=0.381x elapsed=0:00:05.51    \nframe=   77 fps= 13 q=25.0 size=    2304KiB time=00:00:02.50 bitrate=7549.9kbits/s speed=0.408x elapsed=0:00:06.12    \nframe=   85 fps= 13 q=25.0 size=    2560KiB time=00:00:02.76 bitrate=7580.2kbits/s speed=0.414x elapsed=0:00:06.67    \nframe=  101 fps= 14 q=25.0 size=    3072KiB time=00:00:03.30 bitrate=7626.1kbits/s speed=0.456x elapsed=0:00:07.24    \nframe=  111 fps= 14 q=25.0 size=    3328KiB time=00:00:03.60 bitrate=7573.2kbits/s speed=0.461x elapsed=0:00:07.81    \nframe=  117 fps= 14 q=25.0 size=    3584KiB time=00:00:03.83 bitrate=7659.3kbits/s speed=0.459x elapsed=0:00:08.35    \nframe=  133 fps= 15 q=26.0 size=    4096KiB time=00:00:04.36 bitrate=7684.3kbits/s speed=0.488x elapsed=0:00:08.94    \nframe=  142 fps= 15 q=-1.0 size=    4608KiB time=00:00:04.63 bitrate=8147.3kbits/s speed=0.487x elapsed=0:00:09.50    \n[mp4 @ 000001a4761fc440] Starting second pass: moving the moov atom to the beginning of the file\n[out#0/mp4 @ 000001a4761f9cc0] video:4957KiB audio:0KiB subtitle:0KiB other streams:0KiB global headers:0KiB muxing overhead: 0.053650%\nframe=  150 fps= 16 q=-1.0 Lsize=    4959KiB time=00:00:04.93 bitrate=8234.9kbits/s speed=0.51x elapsed=0:00:09.67    \n[libx264 @ 000001a4761fdf00] frame I:1     Avg QP:18.64  size: 62711\n[libx264 @ 000001a4761fdf00] frame P:38    Avg QP:20.25  size: 49685\n[libx264 @ 000001a4761fdf00] frame B:111   Avg QP:20.90  size: 28144\n[libx264 @ 000001a4761fdf00] consecutive B-frames:  1.3%  0.0%  0.0% 98.7%\n[libx264 @ 000001a4761fdf00] mb I  I16..4: 48.9% 46.2%  4.9%\n[libx264 @ 000001a4761fdf00] mb P  I16..4:  1.3%  7.0%  0.5%  P16..4: 63.8% 14.4%  9.4%  0.0%  0.0%    skip: 3.8%\n[libx264 @ 000001a4761fdf00] mb B  I16..4:  0.1%  0.8%  0.1%  B16..8: 58.1%  7.2%  1.0%  direct:11.0%  skip:21.8%  L0:48.2% L1:48.3% BI: 3.4%\n[libx264 @ 000001a4761fdf00] 8x8 transform intra:74.0% inter:82.2%\n[libx264 @ 000001a4761fdf00] direct mvs  spatial:91.0% temporal:9.0%\n[libx264 @ 000001a4761fdf00] coded y,uvDC,uvAC intra: 71.6% 81.1% 34.4% inter: 26.4% 57.7% 4.1%\n[libx264 @ 000001a4761fdf00] i16 v,h,dc,p:  5% 18% 12% 65%\n[libx264 @ 000001a4761fdf00] i8 v,h,dc,ddl,ddr,vr,hd,vl,hu:  7%  8%  4% 10% 17% 12% 18%  9% 15%\n[libx264 @ 000001a4761fdf00] i4 v,h,dc,ddl,ddr,vr,hd,vl,hu:  7%  8%  7%  9% 17% 12% 17%  9% 14%\n[libx264 @ 000001a4761fdf00] i8c dc,h,v,p: 42% 30% 15% 13%\n[libx264 @ 000001a4761fdf00] Weighted P-Frames: Y:7.9% UV:0.0%\n[libx264 @ 000001a4761fdf00] ref P L0: 49.6%  5.9% 24.8% 10.6%  8.6%  0.5%\n[libx264 @ 000001a4761fdf00] ref B L0: 72.9% 19.0%  6.4%  1.7%\n[libx264 @ 000001a4761fdf00] ref B L1: 92.4%  7.6%\n[libx264 @ 000001a4761fdf00] kb/s:8119.51\n",
  "seconds": 10.125948667526245,
  "probe_out": {}
}